<svg width="142" height="17" viewBox="0 0 142 17" fill="none" xmlns="http://www.w3.org/2000/svg">
<path d="M37.1385 3.73774C37.1385 3.73774 38.1518 0.203125 28.2812 0.203125C28.0801 0.203125 27.879 0.203125 27.6701 0.210928C27.4226 0.210928 27.1751 0.210928 26.9275 0.21873H26.8734L0 1.02241L4.20041 5.25926C6.92333 5.23585 18.3874 5.20464 18.3874 5.98491C18.3874 6.76518 9.18986 6.85881 5.80168 6.87442L9.90926 11.0176C13.1737 11.1503 19.0527 11.4624 19.0527 11.8681C19.0527 12.547 14.6512 12.664 11.5415 12.664L15.4402 16.5966H22.0851C26.0611 10.7602 29.7201 9.87065 33.5646 9.7458C41.0604 9.48831 42.2749 11.1503 42.2749 11.1503C44.2552 5.38411 37.1385 3.73774 37.1385 3.73774ZM32.0485 5.01738C30.9345 4.88473 28.5443 3.3398 28.5443 3.3398C31.097 4.11227 34.8565 3.94061 34.8565 3.94061C34.8565 3.94061 33.1469 5.14222 32.0407 5.01738H32.0485Z" fill="url(#paint0_linear_3876_127350)"/>
<path d="M49.1797 11.6718L50.3496 9.45274C51.4866 10.2876 52.9751 10.749 54.4471 10.749C56.029 10.749 57.0232 10.1997 57.0232 9.29346C57.0232 7.30512 50.8659 8.37069 50.8659 4.41049C50.8659 1.85641 53.1014 0.203125 56.5453 0.203125C58.2151 0.203125 59.7585 0.576625 60.8406 1.2687L59.7585 3.47125C58.8193 2.8341 57.6109 2.51004 56.386 2.51004C54.7163 2.51004 53.7441 3.14718 53.7441 4.03699C53.7276 6.08026 59.9013 5.01468 59.9013 8.82658C59.9013 11.4026 57.6274 13.0504 54.167 13.0504C52.1457 13.0504 50.2288 12.4462 49.1797 11.6663V11.6718Z" fill="white"/>
<path d="M72.5691 3.2954L70.6687 12.8416H68.0432L68.2189 11.9024C67.4555 12.5944 66.4613 12.9844 65.2914 12.9844C63.0723 12.9844 61.1719 11.4245 61.1719 8.70565C61.1719 5.49246 63.4953 3.15259 66.4448 3.15259C67.829 3.15259 68.9275 3.59749 69.5482 4.59166L69.7953 3.2954H72.5636H72.5691ZM68.9495 7.5522C68.9495 6.25593 68.153 5.44302 66.7689 5.44302C65.1376 5.44302 63.9621 6.72281 63.9621 8.58482C63.9621 9.88108 64.7586 10.6995 66.1427 10.6995C67.774 10.6995 68.9495 9.4197 68.9495 7.55769V7.5522Z" fill="white"/>
<path d="M84.6229 7.43136C84.6229 10.6446 82.2995 12.9844 79.3335 12.9844C77.9493 12.9844 76.8673 12.5395 76.2466 11.5618L75.3074 16.2855H72.5391L75.1316 3.2954H77.7571L77.5593 4.23464C78.3228 3.54257 79.317 3.15259 80.4869 3.15259C82.706 3.15259 84.6229 4.7125 84.6229 7.43136ZM81.8161 7.55769C81.8161 6.26143 81.0197 5.44851 79.6356 5.44851C78.0207 5.44851 76.8508 6.7283 76.8508 8.59031C76.8508 9.88657 77.6307 10.705 79.0149 10.705C80.6462 10.705 81.8216 9.42519 81.8216 7.56318L81.8161 7.55769Z" fill="white"/>
<path d="M84.8649 11.9903L85.9304 9.98544C86.7489 10.5347 88.0451 10.8917 89.248 10.8917C90.5443 10.8917 91.11 10.5347 91.11 9.96896C91.11 8.61777 86.0513 9.73827 86.0513 6.5086C86.0513 4.36097 88.0561 3.15259 90.8409 3.15259C92.1701 3.15259 93.5048 3.45468 94.3726 3.94902L93.3785 5.97032C92.4887 5.42105 91.4451 5.24529 90.5553 5.24529C89.2755 5.24529 88.7097 5.66822 88.7097 6.18453C88.7097 7.58515 93.752 6.47015 93.752 9.6449C93.752 11.8255 91.6922 12.9789 88.9404 12.9789C87.2542 12.9789 85.6558 12.5505 84.8594 11.9848L84.8649 11.9903Z" fill="white"/>
<path d="M106.487 3.2954L104.587 12.8416H101.961L102.137 11.9024C101.373 12.5944 100.379 12.9844 99.2093 12.9844C96.9903 12.9844 95.0898 11.4245 95.0898 8.70565C95.0898 5.49246 97.4132 3.15259 100.363 3.15259C101.747 3.15259 102.845 3.59749 103.466 4.59166L103.713 3.2954H106.482H106.487ZM102.867 7.5522C102.867 6.25593 102.071 5.44302 100.687 5.44302C99.0555 5.44302 97.8801 6.72281 97.8801 8.58482C97.8801 9.88108 98.6765 10.6995 100.061 10.6995C101.692 10.6995 102.867 9.4197 102.867 7.55769V7.5522Z" fill="white"/>
<path d="M118.075 6.40424C118.075 6.76126 118.042 7.15124 117.949 7.55769L116.883 12.8471H114.115L115.142 7.73346C115.197 7.50277 115.213 7.27207 115.213 7.07434C115.213 6.09665 114.68 5.54738 113.582 5.54738C112.181 5.54738 111.204 6.32734 110.869 7.9971L109.913 12.8416H107.145L109.045 3.2954H111.67L111.456 4.32252C112.324 3.52609 113.428 3.15259 114.598 3.15259C116.691 3.15259 118.075 4.28957 118.075 6.39874V6.40424Z" fill="white"/>
<path d="M123.881 2.72989L123.349 5.42677H129.116L128.671 7.66228H122.887L122.321 10.5349H129.099L128.622 12.8418H119.004L121.487 0.422974H130.874L130.396 2.72989H123.881Z" fill="#FFCC9D"/>
<path d="M137.07 8.06852L139.734 12.8416H136.806L135.246 9.91405L132.494 12.8416H129.336L134.109 7.94219L131.571 3.28992H134.444L135.955 6.09666L138.619 3.28992H141.672L137.075 8.06303L137.07 8.06852Z" fill="#FFCC9D"/>
<defs>
<linearGradient id="paint0_linear_3876_127350" x1="26.386" y1="17.5407" x2="17.0033" y2="-5.80382" gradientUnits="userSpaceOnUse">
<stop stop-color="#FFEAD9"/>
<stop offset="0.68" stop-color="#FFD5AF"/>
<stop offset="0.96" stop-color="#FFCC9D"/>
</linearGradient>
</defs>
</svg>
