<svg width="169" height="69" viewBox="0 0 169 69" fill="none" xmlns="http://www.w3.org/2000/svg">
<path d="M113.159 7.39144C113.159 7.39144 115.013 0.923096 96.95 0.923096C96.582 0.923096 96.2139 0.923096 95.8317 0.937375C95.3787 0.937375 94.9257 0.937375 94.4727 0.951654H94.3736L45.1953 2.42238L52.8821 10.1758C57.865 10.133 78.8444 10.0759 78.8444 11.5038C78.8444 12.9317 62.0128 13.103 55.8124 13.1316L63.3293 20.7137C69.3032 20.9564 80.0618 21.5276 80.0618 22.2701C80.0618 23.5123 72.007 23.7265 66.3162 23.7265L73.4509 30.9231H85.611C92.8872 20.2425 99.5831 18.6147 106.619 18.3862C120.336 17.915 122.558 20.9564 122.558 20.9564C126.182 10.4043 113.159 7.39144 113.159 7.39144ZM103.844 9.73319C101.806 9.49044 97.4313 6.66322 97.4313 6.66322C102.103 8.07683 108.983 7.7627 108.983 7.7627C108.983 7.7627 105.854 9.96165 103.83 9.73319H103.844Z" fill="url(#paint0_linear_3876_127349)"/>
<path d="M0 59.8031L2.13 55.7631C4.2 57.2831 6.91 58.1231 9.59 58.1231C12.47 58.1231 14.28 57.1231 14.28 55.4731C14.28 51.8531 3.07 53.7931 3.07 46.5831C3.07 41.9331 7.14 38.9231 13.41 38.9231C16.45 38.9231 19.26 39.6031 21.23 40.8631L19.26 44.8731C17.55 43.7131 15.35 43.1231 13.12 43.1231C10.08 43.1231 8.31 44.2831 8.31 45.9031C8.28 49.6231 19.52 47.6831 19.52 54.6231C19.52 59.3131 15.38 62.3131 9.08 62.3131C5.4 62.3131 1.91 61.2131 0 59.7931V59.8031Z" fill="white"/>
<path d="M42.5859 44.553L39.1259 61.933H34.3459L34.6659 60.223C33.2759 61.483 31.4659 62.193 29.3359 62.193C25.2959 62.193 21.8359 59.353 21.8359 54.403C21.8359 48.553 26.0659 44.293 31.4359 44.293C33.9559 44.293 35.9559 45.103 37.0859 46.913L37.5359 44.553H42.5759H42.5859ZM35.9959 52.303C35.9959 49.943 34.5459 48.463 32.0259 48.463C29.0559 48.463 26.9159 50.793 26.9159 54.183C26.9159 56.543 28.3659 58.033 30.8859 58.033C33.8559 58.033 35.9959 55.703 35.9959 52.313V52.303Z" fill="white"/>
<path d="M64.5234 52.083C64.5234 57.933 60.2934 62.193 54.8934 62.193C52.3734 62.193 50.4034 61.383 49.2734 59.603L47.5634 68.203H42.5234L47.2434 44.553H52.0234L51.6634 46.263C53.0534 45.003 54.8634 44.293 56.9934 44.293C61.0334 44.293 64.5234 47.133 64.5234 52.083ZM59.4134 52.313C59.4134 49.953 57.9634 48.473 55.4434 48.473C52.5034 48.473 50.3734 50.803 50.3734 54.193C50.3734 56.553 51.7934 58.043 54.3134 58.043C57.2834 58.043 59.4234 55.713 59.4234 52.323L59.4134 52.313Z" fill="white"/>
<path d="M64.9709 60.383L66.9109 56.733C68.4009 57.733 70.7609 58.383 72.9509 58.383C75.3109 58.383 76.3409 57.733 76.3409 56.703C76.3409 54.243 67.1309 56.283 67.1309 50.403C67.1309 46.493 70.7809 44.293 75.8509 44.293C78.2709 44.293 80.7009 44.843 82.2809 45.743L80.4709 49.423C78.8509 48.423 76.9509 48.103 75.3309 48.103C73.0009 48.103 71.9709 48.873 71.9709 49.813C71.9709 52.363 81.1509 50.333 81.1509 56.113C81.1509 60.083 77.4009 62.183 72.3909 62.183C69.3209 62.183 66.4109 61.403 64.9609 60.373L64.9709 60.383Z" fill="white"/>
<path d="M104.336 44.553L100.876 61.933H96.0959L96.4159 60.223C95.0259 61.483 93.2159 62.193 91.0859 62.193C87.0459 62.193 83.5859 59.353 83.5859 54.403C83.5859 48.553 87.8159 44.293 93.1859 44.293C95.7059 44.293 97.7059 45.103 98.8359 46.913L99.2859 44.553H104.326H104.336ZM97.7459 52.303C97.7459 49.943 96.2959 48.463 93.7759 48.463C90.8059 48.463 88.6659 50.793 88.6659 54.183C88.6659 56.543 90.1159 58.033 92.6359 58.033C95.6059 58.033 97.7459 55.703 97.7459 52.313V52.303Z" fill="white"/>
<path d="M125.431 50.213C125.431 50.863 125.371 51.573 125.201 52.313L123.261 61.943H118.221L120.091 52.633C120.191 52.213 120.221 51.793 120.221 51.433C120.221 49.653 119.251 48.653 117.251 48.653C114.701 48.653 112.921 50.073 112.311 53.113L110.571 61.933H105.531L108.991 44.553H113.771L113.381 46.423C114.961 44.973 116.971 44.293 119.101 44.293C122.911 44.293 125.431 46.363 125.431 50.203V50.213Z" fill="white"/>
<path d="M136.005 43.5232L135.035 48.4332H145.535L144.725 52.5032H134.195L133.165 57.7332H145.505L144.635 61.9332H127.125L131.645 39.3232H148.735L147.865 43.5232H136.005Z" fill="#FFCC9D"/>
<path d="M160.018 53.243L164.868 61.933H159.538L156.698 56.603L151.688 61.933H145.938L154.628 53.013L150.008 44.543H155.238L157.988 49.653L162.838 44.543H168.398L160.027 53.233L160.018 53.243Z" fill="#FFCC9D"/>
<defs>
<linearGradient id="paint0_linear_3876_127349" x1="93.4818" y1="32.6508" x2="76.3114" y2="-10.0696" gradientUnits="userSpaceOnUse">
<stop stop-color="#FFEAD9"/>
<stop offset="0.68" stop-color="#FFD5AF"/>
<stop offset="0.96" stop-color="#FFCC9D"/>
</linearGradient>
</defs>
</svg>
