<svg width="64" height="64" viewBox="0 0 64 64" fill="none" xmlns="http://www.w3.org/2000/svg">
  <defs>
    <linearGradient id="sapsanFav" x1="40" y1="58" x2="24" y2="6" gradientUnits="userSpaceOnUse">
      <stop stop-color="#FFEAD9"/>
      <stop offset="0.68" stop-color="#FFD5AF"/>
      <stop offset="0.96" stop-color="#FFCC9D"/>
    </linearGradient>
    <linearGradient id="bgFav" x1="0" y1="0" x2="64" y2="64" gradientUnits="userSpaceOnUse">
      <stop stop-color="#062222"/>
      <stop offset="1" stop-color="#021111"/>
    </linearGradient>
  </defs>
  <rect width="64" height="64" rx="14" fill="url(#bgFav)"/>
  <g transform="translate(8 18) scale(0.24)">
    <path d="M174.265 16.5855C174.265 16.5855 179.02 0 132.704 0C131.761 0 130.817 0 129.837 0.0366C128.675 0.0366 127.514 0.0366 126.352 0.0732H126.098L0 3.8443L19.7097 23.725C32.4864 23.6151 86.2796 23.4687 86.2796 27.1299C86.2796 30.7912 43.1217 31.2305 27.2233 31.3038L46.4974 50.7451C61.815 51.3675 89.4012 52.832 89.4012 54.7358C89.4012 57.9211 68.7478 58.4703 54.1562 58.4703L72.4502 76.9231H103.63C122.287 49.5368 139.456 45.363 157.496 44.7772C192.668 43.569 198.367 51.3675 198.367 51.3675C207.659 24.3108 174.265 16.5855 174.265 16.5855ZM150.381 22.59C145.154 21.9676 133.939 14.7183 133.939 14.7183C145.917 18.3429 163.557 17.5374 163.557 17.5374C163.557 17.5374 155.536 23.1758 150.345 22.59H150.381Z" fill="url(#sapsanFav)"/>
  </g>
</svg>
